<?xml version="1.0" standalone="no"?>
<!DOCTYPE svg PUBLIC "-//W3C//DTD SVG 20010904//EN"
 "http://www.w3.org/TR/2001/REC-SVG-20010904/DTD/svg10.dtd">
<svg version="1.0" xmlns="http://www.w3.org/2000/svg"
 width="1280.000000pt" height="1280.000000pt" viewBox="0 0 1280.000000 1280.000000"
 preserveAspectRatio="xMidYMid meet">
<metadata>
Created by potrace 1.15, written by Peter Selinger 2001-2017
</metadata>
<g transform="translate(0.000000,1280.000000) scale(0.100000,-0.100000)"
fill="#000000" stroke="none">
<path d="M8715 12522 c-74 -26 -120 -66 -155 -135 l-30 -60 0 -324 0 -323 -70
35 c-215 108 -525 204 -835 257 l-130 22 -2675 3 c-2922 4 -2749 7 -2929 -53
-249 -82 -487 -263 -626 -477 -142 -219 -200 -417 -198 -677 0 -166 19 -266
78 -424 20 -54 35 -99 33 -100 -2 -1 -25 -15 -53 -31 -134 -75 -297 -226 -385
-355 -86 -126 -154 -289 -191 -455 -21 -93 -18 -371 4 -468 19 -80 52 -182 81
-249 l16 -37 -63 -37 c-256 -154 -434 -375 -529 -654 -79 -232 -79 -507 -1
-754 44 -140 134 -301 226 -402 26 -29 47 -57 47 -63 0 -6 -20 -36 -45 -66
-132 -163 -232 -385 -270 -599 -20 -116 -20 -335 1 -457 81 -484 431 -890 899
-1043 200 -65 40 -60 1996 -63 l1776 -3 -23 -66 c-82 -226 -215 -723 -273
-1024 -56 -291 -106 -681 -126 -985 -14 -207 31 -494 116 -750 239 -720 860
-1357 1399 -1436 148 -21 405 15 614 88 202 69 437 205 490 282 57 82 56 55
56 1053 l0 918 751 1628 c413 895 759 1643 769 1663 10 19 29 40 43 46 l25 11
4 -86 c7 -128 54 -204 158 -251 45 -20 55 -21 1980 -21 1866 0 1936 1 1976 19
52 24 111 83 135 135 18 40 19 143 19 3311 0 3143 -1 3272 -19 3310 -27 60
-67 103 -125 133 l-51 27 -1920 2 c-1801 2 -1923 1 -1970 -15z m-1287 -1073
c349 -37 734 -164 1022 -335 l80 -48 0 -2250 0 -2251 -214 -108 c-168 -84
-222 -116 -248 -146 -23 -27 -292 -599 -848 -1803 l-815 -1763 -3 -901 -2
-902 -93 -40 c-153 -67 -372 -112 -472 -97 -110 16 -300 140 -458 299 -385
388 -608 931 -567 1385 63 701 220 1417 455 2071 76 211 82 261 45 348 -24 57
-82 115 -139 140 -33 16 -202 17 -2006 22 -2210 6 -2001 -2 -2172 81 -209 100
-359 282 -424 514 -18 62 -23 106 -23 200 0 144 17 222 79 350 66 137 149 229
311 345 68 49 107 126 106 212 0 111 -52 189 -170 254 -102 57 -210 170 -260
274 -55 112 -72 184 -72 300 0 192 55 325 190 461 107 108 202 158 358 189
119 23 149 36 202 91 46 48 70 112 70 188 -1 74 -26 128 -100 209 -118 128
-178 264 -187 427 -15 242 98 459 309 595 67 44 148 73 262 95 161 30 250 125
250 265 0 85 -24 137 -103 222 -127 138 -183 273 -185 448 -1 116 12 183 55
278 65 144 176 260 315 327 139 68 -72 63 2772 64 1745 1 2614 -2 2680 -10z"/>
</g>
</svg>
